<svg xmlns="http://www.w3.org/2000/svg" width="29.482" height="29.482" viewBox="0 0 29.482 29.482">
  <defs>
    <style>
      .cls-1 {
        fill: #f4c9c0;
      }

      .cls-2 {
        fill: #fde4dd;
      }

      .cls-3 {
        fill: #816661;
      }
    </style>
  </defs>
  <g id="Group_1687" data-name="Group 1687" transform="translate(0 0)">
    <path id="Ellipse_524" data-name="Ellipse 524" class="cls-1" d="M12.741-2A14.737,14.737,0,0,1,23.164,23.164,14.741,14.741,0,1,1,7-.841,14.65,14.65,0,0,1,12.741-2Zm0,27.025A12.284,12.284,0,1,0,.457,12.741,12.3,12.3,0,0,0,12.741,25.025Z" transform="translate(2 2)"/>
    <path id="Path_1206" data-name="Path 1206" class="cls-2" d="M29.05,116.818c-.006-.147-.018-.295-.031-.442-.006-.092-.012-.19-.025-.289-.025-.209-.049-.418-.08-.62-.006-.068-.018-.141-.031-.209q-.046-.286-.111-.571t-.129-.553c-.111-.43-.246-.854-.393-1.271s-.326-.817-.516-1.21c-.092-.2-.19-.393-.295-.583-.086-.154-.172-.307-.258-.448,0-.018-.012-.031-.031-.049a1.233,1.233,0,0,0-.123-.209l-.006-.006c-.086-.135-.172-.27-.258-.4-.117-.178-.24-.35-.369-.522-.061-.08-.129-.166-.2-.252,0-.012-.006-.018-.025-.031a.969.969,0,0,0-.147-.184.1.1,0,0,0-.043-.049c.006-.006.006-.006-.006-.012-.111-.135-.227-.27-.344-.4a1,1,0,0,0-.154-.172.1.1,0,0,0-.043-.043l-.006-.006c-.1-.111-.215-.227-.319-.332a4.466,4.466,0,0,0-.35-.338c-.123-.111-.24-.221-.362-.326-.246-.215-.5-.418-.762-.614-.172-.129-.35-.252-.528-.375-.154-.1-.307-.2-.467-.3h-.006a13.515,13.515,0,1,0,4.1,19.1.216.216,0,0,1,.031-.049c.24-.362.467-.731.676-1.118a13.008,13.008,0,0,0,.565-1.179,11.932,11.932,0,0,0,.455-1.241c.068-.215.129-.424.184-.645.111-.424.2-.854.27-1.3.025-.2.055-.412.074-.62s.037-.418.049-.626c.006-.08.012-.166.012-.246.012-.19.018-.387.018-.583,0-.227-.006-.455-.018-.676m-10.417-3.249-.9-.909,3.022-3.022.9.909Zm2.9,1.431c0,.921-.448,1.677-1,1.677s-1-.755-1-1.677.448-1.683,1-1.683,1,.755,1,1.683M9.456,110.547l.9-.909,3.022,3.022-.9.909ZM11.575,115c0,.921-.448,1.677-1,1.677s-1-.755-1-1.677.448-1.683,1-1.683,1,.755,1,1.683m-1.56,8.4a.444.444,0,0,1-.719-.491,6.769,6.769,0,0,1,12.1-.743,7.151,7.151,0,0,1,.424.872.446.446,0,0,1-.725.485c-.178-.172-.35-.332-.528-.485-4.68-4.084-8.648-1.486-10.552.362" transform="translate(-0.788 -102.772)"/>
    <path id="Path_1211" data-name="Path 1211" class="cls-3" d="M16.309,120.853c0,.921-.448,1.677-1,1.677s-1-.755-1-1.677.448-1.683,1-1.683,1,.755,1,1.683" transform="translate(-5.522 -108.624)"/>
    <path id="Path_1212" data-name="Path 1212" class="cls-3" d="M32.519,120.853c0,.921-.448,1.677-1,1.677s-1-.755-1-1.677.448-1.683,1-1.683,1,.755,1,1.683" transform="translate(-11.775 -108.624)"/>
    <path id="Path_1213" data-name="Path 1213" class="cls-3" d="M25.628,132.8c-.178-.172-.35-.332-.528-.485-4.68-4.084-8.648-1.486-10.552.362a.444.444,0,0,1-.719-.491,6.769,6.769,0,0,1,12.1-.743,7.152,7.152,0,0,1,.424.872.446.446,0,0,1-.725.485" transform="translate(-5.32 -112.05)"/>
    <path id="Path_1214" data-name="Path 1214" class="cls-3" d="M18.038,116.2l-.9.909-3.022-3.022.9-.909Z" transform="translate(-5.445 -106.313)"/>
    <path id="Path_1215" data-name="Path 1215" class="cls-3" d="M31.508,114.089l-3.022,3.022-.9-.909,3.022-3.022Z" transform="translate(-10.641 -106.313)"/>
  </g>
</svg>
