<svg xmlns="http://www.w3.org/2000/svg" width="29.482" height="29.482" viewBox="0 0 29.482 29.482">
  <defs>
    <style>
      .cls-1 {
        fill: #f4c9c0;
      }

      .cls-2 {
        fill: #fde4dd;
      }

      .cls-3 {
        fill: #816661;
      }

      .cls-4 {
        fill: #8ec5f0;
      }
    </style>
  </defs>
  <g id="Group_1686" data-name="Group 1686" transform="translate(0 0)">
    <path id="Ellipse_525" data-name="Ellipse 525" class="cls-1" d="M12.741-2A14.737,14.737,0,0,1,23.164,23.164,14.741,14.741,0,1,1,7-.841,14.65,14.65,0,0,1,12.741-2Zm0,27.025A12.284,12.284,0,1,0,.457,12.741,12.3,12.3,0,0,0,12.741,25.025Z" transform="translate(2 2)"/>
    <path id="Path_1232" data-name="Path 1232" class="cls-2" d="M83.01,116.818c-.006-.147-.018-.295-.031-.442-.006-.092-.012-.19-.025-.289-.025-.209-.049-.418-.08-.62-.006-.068-.018-.141-.031-.209q-.046-.286-.111-.571c-.043-.184-.08-.369-.129-.553-.111-.43-.246-.854-.393-1.271s-.326-.817-.516-1.21c-.092-.2-.19-.393-.295-.583-.086-.154-.172-.307-.258-.448.006-.006.006-.006,0-.006a.129.129,0,0,0-.025-.037.044.044,0,0,0-.025-.037.9.9,0,0,0-.1-.178l-.006-.006c-.086-.135-.172-.27-.258-.4-.117-.178-.239-.35-.369-.522-.061-.08-.129-.166-.2-.252a.064.064,0,0,0-.031-.043,1.068,1.068,0,0,0-.135-.166l-.006-.006c0-.012-.012-.025-.031-.037.006-.006.006-.006-.012-.012.006-.006.006-.006-.006-.012-.111-.135-.227-.27-.344-.4l-.006-.006a1.19,1.19,0,0,0-.147-.166.1.1,0,0,0-.043-.043l-.006-.006c-.1-.111-.215-.227-.319-.332a4.47,4.47,0,0,0-.35-.338c-.123-.111-.24-.221-.362-.326-.246-.215-.5-.418-.762-.614-.172-.129-.35-.252-.528-.375-.154-.1-.307-.2-.467-.3H76.6a13.515,13.515,0,1,0,4.1,19.1.216.216,0,0,1,.031-.049c.24-.362.467-.731.676-1.118a13.006,13.006,0,0,0,.565-1.179,11.927,11.927,0,0,0,.455-1.241c.068-.215.129-.424.184-.645.111-.424.2-.854.27-1.3.025-.2.055-.412.074-.62.012-.086.018-.178.025-.264a3.477,3.477,0,0,0,.025-.362c.006-.08.012-.166.012-.246.012-.19.018-.387.018-.583,0-.227-.006-.455-.018-.676m-10.018-7.862a.067.067,0,0,1,.068.012,9.654,9.654,0,0,0,.977.9,6.427,6.427,0,0,0,1.031.669,8.032,8.032,0,0,0,1.136.485c.276.1.565.178.866.258.141.043.283.08.43.123a.061.061,0,0,1,.037.049.054.054,0,0,1-.031.061,3.035,3.035,0,0,1-1.443.258.17.17,0,0,0-.055-.006,3.546,3.546,0,0,1-1.382-.4,3.359,3.359,0,0,1-1.142-.97,2.616,2.616,0,0,1-.528-1.382.059.059,0,0,1,.037-.055m2.5,5.276c0,.927-.448,1.677-.994,1.677s-1-.749-1-1.677.448-1.677,1-1.677.994.749.994,1.677M62.968,111.77a3.035,3.035,0,0,1-1.443-.258.062.062,0,0,1-.031-.061.058.058,0,0,1,.043-.049c.141-.043.283-.08.424-.123.3-.08.59-.16.867-.258a8.025,8.025,0,0,0,1.136-.485,6.433,6.433,0,0,0,1.032-.669,9.716,9.716,0,0,0,.977-.9.067.067,0,0,1,.068-.012.059.059,0,0,1,.037.055,2.612,2.612,0,0,1-.528,1.382,3.359,3.359,0,0,1-1.142.97,3.546,3.546,0,0,1-1.382.4.17.17,0,0,0-.055.006m1.572,4.14c-.553,0-1-.749-1-1.677s.448-1.677,1-1.677,1,.749,1,1.677-.448,1.677-1,1.677m14.7,8.077a3.56,3.56,0,0,1-3.562,3.556,3.487,3.487,0,0,1-.362-.018,3.31,3.31,0,0,1-.356-.055,1.452,1.452,0,0,1-.221-.055,1.05,1.05,0,0,1-.184-.055,2.348,2.348,0,0,1-.344-.135,3.527,3.527,0,0,1-.915-.6,1.766,1.766,0,0,1-.24-.24l-.018-.018a3.5,3.5,0,0,1-.817-1.56,3.27,3.27,0,0,1-.1-.817,4.972,4.972,0,0,1,.455-2.365,4.728,4.728,0,0,0-1.087-.792,4.177,4.177,0,0,0-1.965-.467,4.649,4.649,0,0,0-1.99.479,4.873,4.873,0,0,0-.9.6,5.753,5.753,0,0,0-.811.878.26.26,0,0,1-.467-.16,3.231,3.231,0,0,1,.369-1.419,3.944,3.944,0,0,1,.946-1.173,4.533,4.533,0,0,1,2.838-1.032,4.266,4.266,0,0,1,2.85,1.026,4,4,0,0,1,.755.86,18.935,18.935,0,0,1,2.561-3.642,21.586,21.586,0,0,1,1.733,2.248,14.078,14.078,0,0,1,1.056,1.83v.006a5.869,5.869,0,0,1,.774,3.12" transform="translate(-54.775 -102.772)"/>
    <path id="Path_1233" data-name="Path 1233" class="cls-3" d="M70.269,119.607c0,.927-.448,1.677-1,1.677s-1-.749-1-1.677.448-1.677,1-1.677,1,.749,1,1.677" transform="translate(-59.508 -108.146)"/>
    <path id="Path_1234" data-name="Path 1234" class="cls-3" d="M86.479,119.607c0,.927-.448,1.677-1,1.677s-1-.749-1-1.677.448-1.677,1-1.677,1,.749,1,1.677" transform="translate(-65.762 -108.146)"/>
    <path id="Path_1235" data-name="Path 1235" class="cls-3" d="M88.185,114.561a.054.054,0,0,1-.031.061,3.035,3.035,0,0,1-1.443.258.17.17,0,0,0-.055-.006,3.546,3.546,0,0,1-1.382-.4,3.359,3.359,0,0,1-1.142-.97,2.617,2.617,0,0,1-.528-1.382.059.059,0,0,1,.037-.055.067.067,0,0,1,.068.012,9.714,9.714,0,0,0,.977.9,6.456,6.456,0,0,0,1.032.669,8,8,0,0,0,1.136.485c.276.1.565.178.866.258.141.043.283.08.43.123a.061.061,0,0,1,.037.049" transform="translate(-65.423 -105.883)"/>
    <path id="Path_1236" data-name="Path 1236" class="cls-3" d="M69.524,112.123A2.617,2.617,0,0,1,69,113.5a3.359,3.359,0,0,1-1.142.97,3.546,3.546,0,0,1-1.382.4.17.17,0,0,0-.055.006,3.035,3.035,0,0,1-1.443-.258.062.062,0,0,1-.031-.061.058.058,0,0,1,.043-.049c.141-.043.283-.08.424-.123.3-.08.59-.16.866-.258a8,8,0,0,0,1.136-.485,6.457,6.457,0,0,0,1.032-.669,9.717,9.717,0,0,0,.977-.9.067.067,0,0,1,.068-.012.059.059,0,0,1,.037.055" transform="translate(-58.223 -105.883)"/>
    <path id="Path_1237" data-name="Path 1237" class="cls-3" d="M79,129.555a8.851,8.851,0,0,0-.541,1.2,4.727,4.727,0,0,0-1.087-.792,4.177,4.177,0,0,0-1.965-.467,4.65,4.65,0,0,0-1.99.479,4.873,4.873,0,0,0-.9.6,5.753,5.753,0,0,0-.811.878.26.26,0,0,1-.467-.16,3.231,3.231,0,0,1,.369-1.419,3.944,3.944,0,0,1,.946-1.173A4.533,4.533,0,0,1,75.4,127.67a4.266,4.266,0,0,1,2.85,1.026,4,4,0,0,1,.755.86" transform="translate(-60.654 -111.903)"/>
    <path id="Path_1238" data-name="Path 1238" class="cls-4" d="M89.362,132.015a3.56,3.56,0,0,1-3.562,3.556,3.491,3.491,0,0,1-.362-.018,3.306,3.306,0,0,1-.356-.055,1.451,1.451,0,0,1-.221-.055,1.047,1.047,0,0,1-.184-.055,2.346,2.346,0,0,1-.344-.135,3.526,3.526,0,0,1-.915-.6,2.207,2.207,0,0,1-.24-.24l-.018-.018a3.5,3.5,0,0,1-.817-1.56,3.27,3.27,0,0,1-.1-.817,4.972,4.972,0,0,1,.455-2.365,8.848,8.848,0,0,1,.541-1.2A18.935,18.935,0,0,1,85.8,124.81a21.587,21.587,0,0,1,1.733,2.248,14.079,14.079,0,0,1,1.056,1.83v.006a5.869,5.869,0,0,1,.774,3.12" transform="translate(-64.893 -110.8)"/>
  </g>
</svg>
