<svg id="Group_1684" data-name="Group 1684" xmlns="http://www.w3.org/2000/svg" width="31.769" height="29.482" viewBox="0 0 31.769 29.482">
  <defs>
    <style>
      .cls-1 {
        fill: #f4c9c0;
      }

      .cls-2 {
        fill: #ffd05d;
      }

      .cls-3 {
        fill: #fde4dd;
      }

      .cls-4 {
        fill: #816661;
      }

      .cls-5 {
        fill: #8ec5f0;
      }

      .cls-6 {
        fill: #7cc4e8;
      }

      .cls-7 {
        fill: #f08e99;
      }
    </style>
  </defs>
  <path id="Ellipse_527" data-name="Ellipse 527" class="cls-1" d="M12.741-2A14.737,14.737,0,0,1,23.164,23.164,14.741,14.741,0,1,1,7-.841,14.65,14.65,0,0,1,12.741-2Zm0,27.025A12.284,12.284,0,1,0,.457,12.741,12.3,12.3,0,0,0,12.741,25.025Z" transform="translate(3.143 2)"/>
  <path id="Path_1216" data-name="Path 1216" class="cls-2" d="M80.043,23.364c-.03.186-.06.367-.084.54.06-.168.12-.343.168-.517-.024-.006-.054-.018-.084-.024m1.8,9.072c-.042.054-.084.1-.127.156a1.464,1.464,0,0,0,.132-.15Zm-20.674,0-.006.006A13.462,13.462,0,0,0,71.5,37.266,13.3,13.3,0,0,0,77.189,36a13.544,13.544,0,0,1-16.023-3.569m23.72-6.85v.006h.006c.024-.15.042-.3.054-.457-.018.15-.036.3-.06.451" transform="translate(-55.619 -9.014)"/>
  <path id="Path_1217" data-name="Path 1217" class="cls-3" d="M83.011,14.815a12.605,12.605,0,0,0-.138-1.352c-.024-.162-.049-.33-.084-.493a1.179,1.179,0,0,0-.024-.144c-.042-.21-.09-.42-.144-.625-.06-.24-.126-.475-.2-.709-.06-.2-.126-.391-.192-.583s-.144-.384-.222-.571-.162-.373-.246-.559-.18-.367-.27-.547a.543.543,0,0,0-.03-.06c-.09-.168-.186-.337-.283-.5s-.192-.324-.3-.486c-.06-.084-.114-.169-.168-.252a1.635,1.635,0,0,0-.174-.246c-.114-.162-.234-.325-.36-.481a14.314,14.314,0,0,0-1.2-1.346,12.992,12.992,0,0,0-2.362-1.844L76.6,4.013A13.374,13.374,0,0,0,69.516,2,13.509,13.509,0,0,0,56,15.512a12.628,12.628,0,0,0,.126,1.8c.246-.18.523-.366.835-.552.27-.163.565-.33.889-.493a20.9,20.9,0,0,1,2.975-1.232,17.934,17.934,0,0,1,.343,4.926,8.215,8.215,0,0,1-.469,2.223c-.018.054-.042.108-.06.156a3.194,3.194,0,0,1-.348.667.233.233,0,0,1-.03.042,3.538,3.538,0,0,1-.45.606,3.39,3.39,0,0,1-.637.541A13.546,13.546,0,0,0,75.2,27.763c.246-.114.487-.241.727-.367.27-.144.541-.3.8-.468.3-.193.588-.391.871-.6H77.6q.388-.288.757-.612c.246-.211.48-.433.709-.661.15-.15.3-.306.445-.469.072-.079.144-.157.21-.235.042-.054.084-.1.127-.156a3.483,3.483,0,0,1-1.04-1.075s-1.652-1.875-.847-7.438c.006,0,.006-.006.006-.018.024-.174.054-.354.084-.54.03.006.06.018.084.024a18.02,18.02,0,0,1,4.428,1.976c.114.072.229.15.33.222.024-.15.042-.3.06-.45a13.541,13.541,0,0,0,.072-1.4c0-.228-.006-.45-.018-.679M73.9,12.629l2.739-1.617a.573.573,0,0,1,.577.991l-2.013,1.184,1.946,1.52a.569.569,0,0,1-.348,1.021.564.564,0,0,1-.354-.12l-2.613-2.037a.564.564,0,0,1-.216-.486.555.555,0,0,1,.283-.456M61.6,11.217a.581.581,0,0,1,.787-.2l2.74,1.617a.568.568,0,0,1,.06.943l-2.614,2.037a.552.552,0,0,1-.354.12.569.569,0,0,1-.348-1.021l1.946-1.52L61.808,12a.576.576,0,0,1-.2-.787M74.677,22.253a7.694,7.694,0,0,1-1.526,1.058c-.157.084-.313.162-.475.235-.126.053-.252.107-.384.156l-.3.108a7.842,7.842,0,0,1-2.476.4c-.144,0-.282-.006-.42-.012h-.012c-.1-.006-.2-.012-.306-.025a2.549,2.549,0,0,1-.312-.036A5.483,5.483,0,0,1,67.7,24a3.253,3.253,0,0,1-.348-.09c-.066-.018-.132-.036-.192-.054-.078-.03-.156-.054-.228-.078-.234-.084-.463-.174-.685-.276-.108-.054-.216-.108-.318-.162a7.687,7.687,0,0,1-1.214-.781c-.1-.072-.186-.15-.283-.228s-.174-.156-.265-.24a7.725,7.725,0,0,1-2.4-4.782H77.255c0,.024-.006.042-.006.066a7.786,7.786,0,0,1-2.572,4.885" transform="translate(-53.63 -0.772)"/>
  <path id="Path_1220" data-name="Path 1220" class="cls-4" d="M68.88,18.7a.569.569,0,0,1-.222.486l-2.613,2.037a.552.552,0,0,1-.354.12.569.569,0,0,1-.348-1.021l1.946-1.52-2.013-1.184a.576.576,0,0,1-.2-.787.583.583,0,0,1,.787-.2l2.74,1.617a.572.572,0,0,1,.282.456" transform="translate(-57.097 -6.384)"/>
  <path id="Path_1221" data-name="Path 1221" class="cls-4" d="M88.283,17.617,86.27,18.8l1.946,1.52a.569.569,0,0,1-.348,1.021.561.561,0,0,1-.354-.12L84.9,19.185a.567.567,0,0,1-.216-.486.56.56,0,0,1,.283-.457l2.74-1.616a.573.573,0,0,1,.577.991" transform="translate(-64.694 -6.385)"/>
  <path id="Path_1222" data-name="Path 1222" class="cls-5" d="M97.361,32.536a3.5,3.5,0,0,1-2.085.523c-.078-.006-.15-.012-.222-.024a3.023,3.023,0,0,1-.565-.114,3.491,3.491,0,0,1-.979-.462l-.006-.006a3.488,3.488,0,0,1-1.039-1.075s-1.652-1.875-.848-7.438c.006,0,.006-.006.006-.018.06-.168.12-.343.168-.517A18.006,18.006,0,0,1,96.22,25.38c.114.072.228.15.33.223v.006h.006A7.34,7.34,0,0,1,98.2,27.117c.036.048.066.09.09.126a2.306,2.306,0,0,1,.235.391,3.56,3.56,0,0,1-1.16,4.9" transform="translate(-67.284 -9.029)"/>
  <path id="Path_1223" data-name="Path 1223" class="cls-6" d="M91.935,23.389c-.048.174-.108.348-.168.517.024-.174.054-.354.084-.54.03.006.06.018.084.024" transform="translate(-67.427 -9.014)"/>
  <path id="Path_1224" data-name="Path 1224" class="cls-5" d="M59.68,28.145a8.225,8.225,0,0,1-.469,2.223c-.018.053-.042.107-.06.156a3.2,3.2,0,0,1-.349.666.258.258,0,0,1-.029.042,3.546,3.546,0,0,1-.451.607,3.394,3.394,0,0,1-.637.541l-.006.006a3.557,3.557,0,0,1-3.779.12,3.05,3.05,0,0,1-.325-.217,2.182,2.182,0,0,1-.258-.209,2.922,2.922,0,0,1-.469-.517,1.667,1.667,0,0,1-.12-.168,2.041,2.041,0,0,1-.132-.216,3.291,3.291,0,0,1-.162-.33,2.469,2.469,0,0,1-.114-.294c-.012-.036-.024-.079-.036-.114-.024-.078-.042-.157-.06-.241-.006-.018-.006-.029-.012-.048a3.546,3.546,0,0,1,.415-2.511,5.541,5.541,0,0,1,2.013-2.145c.246-.18.522-.367.835-.553.27-.162.564-.33.889-.493a20.793,20.793,0,0,1,2.974-1.231,17.911,17.911,0,0,1,.343,4.926" transform="translate(-52.139 -8.958)"/>
  <path id="Path_1225" data-name="Path 1225" class="cls-4" d="M80.877,26.915c0,.024-.006.042-.006.066A7.783,7.783,0,0,1,78.3,31.865l-.072-.168c-.283-.138-.571-.264-.853-.372a12.977,12.977,0,0,0-9.583.372,7.723,7.723,0,0,1-2.4-4.782Z" transform="translate(-57.253 -10.384)"/>
  <path id="Path_1226" data-name="Path 1226" class="cls-7" d="M79.805,34.156a7.694,7.694,0,0,1-1.526,1.058c-.157.084-.313.162-.475.235-.126.053-.252.107-.384.156l-.3.108a7.842,7.842,0,0,1-2.476.4c-.144,0-.282-.006-.42-.012h-.012c-.1-.006-.2-.012-.306-.025a2.549,2.549,0,0,1-.312-.036,5.485,5.485,0,0,1-.763-.144,3.252,3.252,0,0,1-.348-.09c-.066-.018-.132-.036-.192-.054-.078-.03-.156-.054-.228-.078-.234-.084-.463-.174-.685-.276-.108-.054-.216-.108-.318-.162a7.687,7.687,0,0,1-1.214-.781c-.1-.072-.186-.15-.283-.228s-.174-.156-.265-.24a12.979,12.979,0,0,1,9.583-.372c.282.108.571.234.853.372Z" transform="translate(-58.759 -12.674)"/>
</svg>
