<svg id="Group_1683" data-name="Group 1683" xmlns="http://www.w3.org/2000/svg" width="29.482" height="29.482" viewBox="0 0 29.482 29.482">
  <defs>
    <style>
      .cls-1 {
        fill: #f4c9c0;
      }

      .cls-2 {
        fill: #fde4dd;
      }

      .cls-3 {
        fill: #816661;
      }

      .cls-4 {
        fill: #f08e99;
      }
    </style>
  </defs>
  <path id="Ellipse_529" data-name="Ellipse 529" class="cls-1" d="M12.741-2A14.737,14.737,0,0,1,23.164,23.164,14.741,14.741,0,1,1,7-.841,14.65,14.65,0,0,1,12.741-2Zm0,27.025A12.284,12.284,0,1,0,.457,12.741,12.3,12.3,0,0,0,12.741,25.025Z" transform="translate(2 2)"/>
  <path id="Path_1257" data-name="Path 1257" class="cls-2" d="M83.01,65.818c-.012-.215-.025-.43-.043-.639-.006-.025-.006-.055-.012-.093-.025-.208-.049-.417-.08-.62v-.018c-.074-.448-.16-.884-.27-1.314s-.246-.854-.393-1.272-.326-.816-.516-1.209c-.092-.2-.19-.393-.295-.583q-.138-.258-.295-.516a.535.535,0,0,0-.068-.111c-.1-.166-.209-.326-.313-.485a11,11,0,0,0-.762-1.02c0-.012-.006-.018-.025-.031-.111-.135-.227-.27-.344-.4a1,1,0,0,0-.154-.172c-.123-.129-.246-.258-.369-.381a13.569,13.569,0,0,0-2-1.652c-.154-.1-.313-.2-.473-.3a13.511,13.511,0,1,0-7.082,25.016,12.914,12.914,0,0,0,3.538-.479c.19-.049.375-.1.559-.166.369-.117.725-.252,1.081-.393,0-.006,0-.006.006-.006.35-.147.7-.307,1.038-.485s.669-.362.989-.565.633-.424.94-.651c.111-.086.221-.172.332-.264.074-.061.154-.123.227-.19.061-.049.123-.1.184-.154.184-.16.362-.326.541-.5.1-.1.209-.209.3-.307s.2-.209.289-.313q.286-.313.553-.645a11.02,11.02,0,0,0,.669-.921c.111-.154.209-.319.307-.479.2-.326.381-.663.553-1,.086-.172.166-.344.246-.522.154-.35.295-.706.424-1.075a12.918,12.918,0,0,0,.461-1.689,13.233,13.233,0,0,0,.276-2.721c0-.227-.006-.454-.018-.676M61.562,60.173a1.861,1.861,0,0,1,1.278.48,2.239,2.239,0,0,1,.639,1.02,1.986,1.986,0,0,1,1.916-1.5,2.3,2.3,0,0,1,2.26,2.39v.018c.006.27,0,3.034-4.177,5.282C59.3,65.616,59.3,62.852,59.3,62.582v-.018a2.655,2.655,0,0,1,.086-.663,2.4,2.4,0,0,1,.774-1.228,2.14,2.14,0,0,1,1.4-.5m11.787,12.77v.006a4.765,4.765,0,0,1-.436.344,3.35,3.35,0,0,1-.356.246,5.23,5.23,0,0,1-.516.283c-.147.068-.295.135-.442.19a5.432,5.432,0,0,1-1,.283,1.8,1.8,0,0,1-.178.031,5.558,5.558,0,0,1-.909.074,5.8,5.8,0,0,1-1.941-.332l-.227-.092a4.468,4.468,0,0,1-.491-.227,5.1,5.1,0,0,1-.467-.27c-.117-.074-.227-.154-.338-.233-.074-.055-.141-.1-.2-.16-.1-.086-.2-.172-.3-.264a5.718,5.718,0,0,1-1.775-3.544H75.258a5.746,5.746,0,0,1-1.91,3.667m4.871-7.076a10.032,10.032,0,0,1-2.666,2c-4.177-2.248-4.183-5.012-4.177-5.282v-.018a2.3,2.3,0,0,1,2.26-2.39,1.888,1.888,0,0,1,1.284.48,2.278,2.278,0,0,1,.633,1.02,1.992,1.992,0,0,1,1.916-1.5,2.194,2.194,0,0,1,1.124.3,2.414,2.414,0,0,1,1.136,2.088v.018a4.908,4.908,0,0,1-1.511,3.286" transform="translate(-54.775 -51.772)"/>
  <path id="Path_1263" data-name="Path 1263" class="cls-3" d="M80.139,79.5a5.746,5.746,0,0,1-1.91,3.667l-.055-.123a9.543,9.543,0,0,0-7.745,0A5.718,5.718,0,0,1,68.653,79.5Z" transform="translate(-59.655 -61.995)"/>
  <path id="Path_1264" data-name="Path 1264" class="cls-4" d="M79.344,84.865v.006a4.662,4.662,0,0,1-.436.344,3.35,3.35,0,0,1-.356.246,5.237,5.237,0,0,1-.516.283c-.147.068-.295.135-.442.19a5.432,5.432,0,0,1-1,.283,1.8,1.8,0,0,1-.178.031,5.557,5.557,0,0,1-.909.074,5.8,5.8,0,0,1-1.941-.332l-.227-.092a4.471,4.471,0,0,1-.491-.227,5.1,5.1,0,0,1-.467-.27c-.117-.074-.227-.154-.338-.233-.074-.055-.141-.1-.2-.16-.1-.086-.2-.172-.3-.264a9.543,9.543,0,0,1,7.745,0Z" transform="translate(-60.77 -63.693)"/>
  <path id="Path_1265" data-name="Path 1265" class="cls-4" d="M69.727,67.069v.018c.006.27,0,3.034-4.177,5.282-4.177-2.248-4.183-5.012-4.177-5.282v-.018a2.654,2.654,0,0,1,.086-.663,2.4,2.4,0,0,1,.774-1.228,2.14,2.14,0,0,1,1.4-.5,1.86,1.86,0,0,1,1.278.479,2.24,2.24,0,0,1,.639,1.02,1.986,1.986,0,0,1,1.916-1.5,2.3,2.3,0,0,1,2.26,2.389" transform="translate(-56.847 -56.278)"/>
  <path id="Path_1266" data-name="Path 1266" class="cls-4" d="M87.875,70.373a10.033,10.033,0,0,1-2.666,2c-4.177-2.248-4.183-5.012-4.177-5.282v-.018a2.3,2.3,0,0,1,2.26-2.39,1.888,1.888,0,0,1,1.284.48,2.278,2.278,0,0,1,.633,1.02,1.992,1.992,0,0,1,1.916-1.5,2.194,2.194,0,0,1,1.124.3,2.414,2.414,0,0,1,1.136,2.088v.018a4.908,4.908,0,0,1-1.511,3.286" transform="translate(-64.431 -56.277)"/>
</svg>
