<svg id="Group_1685" data-name="Group 1685" xmlns="http://www.w3.org/2000/svg" width="29.482" height="29.482" viewBox="0 0 29.482 29.482">
  <defs>
    <style>
      .cls-1 {
        fill: #f4c9c0;
      }

      .cls-2 {
        fill: #fde4dd;
      }

      .cls-3 {
        fill: #816661;
      }

      .cls-4 {
        fill: #f08e99;
      }
    </style>
  </defs>
  <path id="Ellipse_528" data-name="Ellipse 528" class="cls-1" d="M12.741-2A14.737,14.737,0,0,1,23.164,23.164,14.741,14.741,0,1,1,7-.841,14.65,14.65,0,0,1,12.741-2Zm0,27.025A12.284,12.284,0,1,0,.457,12.741,12.3,12.3,0,0,0,12.741,25.025Z" transform="translate(2 2)"/>
  <path id="Path_1240" data-name="Path 1240" class="cls-2" d="M29.01,14.818c-.012-.215-.025-.43-.043-.639-.006-.025-.006-.055-.012-.092-.025-.209-.049-.418-.08-.62v-.018c-.074-.448-.16-.884-.27-1.314s-.246-.854-.393-1.271-.326-.817-.516-1.21c-.092-.2-.19-.393-.295-.583q-.138-.258-.295-.516a.535.535,0,0,0-.068-.111c-.1-.166-.209-.326-.313-.485a10.993,10.993,0,0,0-.762-1.02c0-.012-.006-.018-.025-.031-.111-.135-.227-.27-.344-.4a1,1,0,0,0-.154-.172c-.123-.129-.246-.258-.369-.381a13.568,13.568,0,0,0-2-1.652c-.154-.1-.313-.2-.473-.3a13.513,13.513,0,1,0-7.082,25.022,13.266,13.266,0,0,0,5.89-1.364c.178-.086.356-.178.528-.27s.338-.19.5-.289c.338-.2.669-.424,1-.651s.626-.473.921-.731c.276-.24.541-.485.792-.749.141-.147.283-.295.418-.442a13.363,13.363,0,0,0,1.13-1.437c.221-.319.424-.651.62-1V22.09c.19-.344.369-.694.534-1.056a13.347,13.347,0,0,0,.786-2.266q.147-.59.24-1.2a14.423,14.423,0,0,0,.154-2.076c0-.227-.006-.455-.018-.676M5.578,19.75a2.359,2.359,0,0,1,0-4.717,2.359,2.359,0,1,1,0,4.717M7.39,12.558a.406.406,0,0,1,.154-.485.374.374,0,0,1,.221-.068.41.41,0,0,1,.283.111,2.142,2.142,0,0,0,3.323.043.4.4,0,0,1,.51-.043.389.389,0,0,1,.141.485,2.5,2.5,0,0,1-4.631-.043m14.385,4.957a6.772,6.772,0,0,1-12.524-.123.445.445,0,0,1,.725-.485c4.9,4.76,9.1,2.033,11.08.117a.445.445,0,0,1,.719.491m-.448-3.384A2.489,2.489,0,0,1,19,12.558a.4.4,0,0,1,.147-.485.374.374,0,0,1,.221-.068.41.41,0,0,1,.283.111,2.142,2.142,0,0,0,3.323.043.4.4,0,0,1,.51-.043.389.389,0,0,1,.141.485,2.5,2.5,0,0,1-2.3,1.529m4.121,5.62a2.362,2.362,0,0,1-2.346-2.1c-.006-.086-.012-.172-.012-.258a2.359,2.359,0,1,1,2.359,2.359" transform="translate(-0.773 -0.772)"/>
  <path id="Path_1246" data-name="Path 1246" class="cls-3" d="M26.3,26.8a6.772,6.772,0,0,1-12.524-.123.445.445,0,0,1,.725-.485c4.9,4.76,9.1,2.033,11.08.117a.445.445,0,0,1,.719.491" transform="translate(-5.303 -10.053)"/>
  <path id="Path_1247" data-name="Path 1247" class="cls-3" d="M34.289,18.886a2.5,2.5,0,0,1-4.625-.043.4.4,0,0,1,.147-.485.374.374,0,0,1,.221-.068.41.41,0,0,1,.283.111,2.142,2.142,0,0,0,3.323.043.4.4,0,0,1,.51-.043.389.389,0,0,1,.141.485" transform="translate(-11.432 -7.056)"/>
  <path id="Path_1248" data-name="Path 1248" class="cls-3" d="M15.387,18.886a2.5,2.5,0,0,1-4.631-.043.406.406,0,0,1,.154-.485.374.374,0,0,1,.221-.068.41.41,0,0,1,.283.111,2.142,2.142,0,0,0,3.323.043.4.4,0,0,1,.51-.043.389.389,0,0,1,.141.485" transform="translate(-4.139 -7.056)"/>
  <path id="Path_1249" data-name="Path 1249" class="cls-4" d="M8.7,25.579a2.359,2.359,0,0,1-2.359,2.359,2.359,2.359,0,0,1,0-4.717A2.359,2.359,0,0,1,8.7,25.579" transform="translate(-1.537 -8.958)"/>
  <path id="Path_1250" data-name="Path 1250" class="cls-4" d="M41.051,25.579a2.36,2.36,0,0,1-4.7.258c-.006-.086-.012-.172-.012-.258a2.359,2.359,0,0,1,4.717,0" transform="translate(-14.018 -8.958)"/>
</svg>
