<svg id="Group_1688" data-name="Group 1688" xmlns="http://www.w3.org/2000/svg" width="29.482" height="29.482" viewBox="0 0 29.482 29.482">
  <defs>
    <style>
      .cls-1 {
        fill: #f4c9c0;
      }

      .cls-2 {
        fill: #fde4dd;
      }

      .cls-3 {
        fill: #816661;
      }

      .cls-4 {
        fill: #f08e99;
      }
    </style>
  </defs>
  <path id="Ellipse_526" data-name="Ellipse 526" class="cls-1" d="M12.741-2A14.737,14.737,0,0,1,23.164,23.164,14.741,14.741,0,1,1,7-.841,14.65,14.65,0,0,1,12.741-2Zm0,27.025A12.284,12.284,0,1,0,.457,12.741,12.3,12.3,0,0,0,12.741,25.025Z" transform="translate(2 2)"/>
  <path id="Path_1196" data-name="Path 1196" class="cls-2" d="M29.01,65.818c-.006-.147-.018-.295-.031-.442-.006-.092-.012-.19-.025-.289-.025-.209-.049-.418-.08-.62-.006-.068-.018-.141-.031-.209q-.046-.286-.111-.571c-.043-.184-.08-.369-.129-.553-.111-.43-.246-.854-.393-1.271s-.326-.817-.516-1.21c-.092-.2-.19-.393-.295-.583-.086-.154-.172-.307-.258-.448,0-.018-.012-.031-.031-.049a1.234,1.234,0,0,0-.123-.209l-.006-.006c-.086-.135-.172-.27-.258-.4-.117-.178-.24-.35-.369-.522-.061-.08-.129-.166-.2-.252,0-.012-.006-.018-.025-.031a.969.969,0,0,0-.147-.184.1.1,0,0,0-.043-.049c.006-.006.006-.006-.006-.012-.111-.135-.227-.27-.344-.4a1,1,0,0,0-.154-.172.1.1,0,0,0-.043-.043c.006,0-.006-.006-.006-.006-.1-.111-.215-.227-.319-.332a4.462,4.462,0,0,0-.35-.338c-.123-.111-.24-.221-.362-.326-.246-.215-.5-.418-.762-.614-.172-.129-.35-.252-.528-.375-.154-.1-.307-.2-.467-.3H22.6a13.515,13.515,0,1,0,4.1,19.1.216.216,0,0,1,.031-.049c.24-.362.467-.731.676-1.118a13,13,0,0,0,.565-1.179,11.93,11.93,0,0,0,.455-1.241c.068-.215.129-.424.184-.645.111-.424.2-.854.27-1.3.025-.2.055-.412.074-.62s.037-.418.049-.626c.006-.08.012-.166.012-.246.012-.19.018-.387.018-.583,0-.227-.006-.454-.018-.676m-8.519-.909c-.547,0-1-.749-1-1.677s.448-1.677,1-1.677,1,.749,1,1.677-.448,1.677-1,1.677M17.954,70.3a6.235,6.235,0,0,1-.381,2.217,2.122,2.122,0,0,1-.086.209,2.98,2.98,0,0,1-.19.4c-.037.061-.068.123-.1.178-.068.111-.141.209-.215.307a2.489,2.489,0,0,1-.516.5,1.023,1.023,0,0,1-.172.111.564.564,0,0,1-.086.043.911.911,0,0,1-.2.086,1.177,1.177,0,0,1-.2.055.363.363,0,0,1-.086.012,1.148,1.148,0,0,1-.209.018,1.217,1.217,0,0,1-.215-.018.12.12,0,0,1-.049-.006,1.688,1.688,0,0,1-.884-.467,2.441,2.441,0,0,1-.246-.258A2.565,2.565,0,0,1,13.9,73.4c-.012-.018-.018-.031-.031-.049a2.206,2.206,0,0,1-.166-.289.154.154,0,0,1-.025-.043,2.345,2.345,0,0,1-.129-.283.561.561,0,0,1-.043-.086,6.349,6.349,0,0,1-.43-2.352c0-2.285,1.093-4.134,2.438-4.134s2.438,1.849,2.438,4.134m-6.418-7.069c0,.927-.448,1.677-1,1.677s-1-.749-1-1.677.448-1.677,1-1.677,1,.749,1,1.677" transform="translate(-0.775 -51.772)"/>
  <path id="Path_1201" data-name="Path 1201" class="cls-3" d="M16.269,68.607c0,.927-.448,1.677-1,1.677s-1-.749-1-1.677.448-1.677,1-1.677,1,.749,1,1.677" transform="translate(-5.508 -57.146)"/>
  <path id="Path_1202" data-name="Path 1202" class="cls-3" d="M32.479,68.607c0,.927-.448,1.677-1,1.677s-1-.749-1-1.677.448-1.677,1-1.677,1,.749,1,1.677" transform="translate(-11.762 -57.146)"/>
  <path id="Path_1203" data-name="Path 1203" class="cls-3" d="M24.91,78.574a6.235,6.235,0,0,1-.381,2.217,3.736,3.736,0,0,0-4.066.135,6.349,6.349,0,0,1-.43-2.352c0-2.285,1.093-4.134,2.438-4.134s2.438,1.849,2.438,4.134" transform="translate(-7.73 -60.043)"/>
  <path id="Path_1204" data-name="Path 1204" class="cls-4" d="M24.8,84.444a2.118,2.118,0,0,1-.086.209,3.984,3.984,0,0,1-.19.4c-.037.061-.068.123-.1.178-.068.111-.141.209-.215.307a2.489,2.489,0,0,1-.516.5,1.023,1.023,0,0,1-.172.111.562.562,0,0,1-.086.043.911.911,0,0,1-.2.086,1.178,1.178,0,0,1-.2.055.363.363,0,0,1-.086.012,1.15,1.15,0,0,1-.209.018,1.219,1.219,0,0,1-.215-.018.12.12,0,0,1-.049-.006,1.689,1.689,0,0,1-.884-.467,2.44,2.44,0,0,1-.246-.258,2.563,2.563,0,0,1-.221-.289c-.012-.018-.018-.031-.031-.049a2.207,2.207,0,0,1-.166-.289.154.154,0,0,1-.025-.043,2.346,2.346,0,0,1-.129-.283.562.562,0,0,1-.043-.086,3.736,3.736,0,0,1,4.066-.135" transform="translate(-8.001 -63.696)"/>
</svg>
