<svg xmlns="http://www.w3.org/2000/svg" width="107.862" height="150" viewBox="0 0 107.862 150">
  <defs>
    <style>
      .cls-1 {
        fill: none;
        stroke: #f4c9c0;
        stroke-miterlimit: 10;
        stroke-width: 4px;
      }

      .cls-2 {
        fill: #fde4dd;
      }

      .cls-3 {
        fill: #816661;
      }

      .cls-4 {
        fill: #f08e99;
      }

      .cls-5 {
        fill: #ffd05d;
      }

      .cls-6 {
        fill: #8ec5f0;
      }

      .cls-7 {
        fill: #7cc4e8;
      }
    </style>
  </defs>
  <g id="Component_22_1" data-name="Component 22 – 1" transform="translate(2 2)">
    <g id="Group_1633" data-name="Group 1633" transform="translate(-144.069 -566)">
      <circle id="Ellipse_526" data-name="Ellipse 526" class="cls-1" cx="22" cy="22" r="22" transform="translate(144.072 617)"/>
      <path id="Path_1196" data-name="Path 1196" class="cls-2" d="M45.973,73.87c-.01-.24-.03-.48-.05-.72-.01-.15-.02-.31-.04-.47-.04-.34-.08-.68-.13-1.01-.01-.11-.03-.23-.05-.34q-.075-.465-.18-.93c-.07-.3-.13-.6-.21-.9-.18-.7-.4-1.39-.64-2.07s-.53-1.33-.84-1.97c-.15-.32-.31-.64-.48-.95-.14-.25-.28-.5-.42-.73,0-.03-.02-.05-.05-.08a2.009,2.009,0,0,0-.2-.34l-.01-.01c-.14-.22-.28-.44-.42-.65-.19-.29-.39-.57-.6-.85-.1-.13-.21-.27-.32-.41,0-.02-.01-.03-.04-.05a1.577,1.577,0,0,0-.24-.3.168.168,0,0,0-.07-.08c.01-.01.01-.01-.01-.02-.18-.22-.37-.44-.56-.65a1.622,1.622,0,0,0-.25-.28.154.154,0,0,0-.07-.07c.01,0-.01-.01-.01-.01-.17-.18-.35-.37-.52-.54a7.266,7.266,0,0,0-.57-.55c-.2-.18-.39-.36-.59-.53-.4-.35-.81-.68-1.24-1-.28-.21-.57-.41-.86-.61-.25-.17-.5-.33-.76-.49h-.01A22,22,0,1,0,42.2,87.35a.351.351,0,0,1,.05-.08c.39-.59.76-1.19,1.1-1.82a21.175,21.175,0,0,0,.92-1.92,19.422,19.422,0,0,0,.74-2.02c.11-.35.21-.69.3-1.05.18-.69.32-1.39.44-2.11.04-.33.09-.67.12-1.01s.06-.68.08-1.02c.01-.13.02-.27.02-.4.02-.31.03-.63.03-.95,0-.37-.01-.74-.03-1.1M32.1,72.39c-.89,0-1.62-1.22-1.62-2.73s.73-2.73,1.62-2.73,1.63,1.22,1.63,2.73S33,72.39,32.1,72.39m-4.13,8.78a10.151,10.151,0,0,1-.62,3.61,3.454,3.454,0,0,1-.14.34,4.85,4.85,0,0,1-.31.65c-.06.1-.11.2-.17.29-.11.18-.23.34-.35.5a4.052,4.052,0,0,1-.84.82,1.665,1.665,0,0,1-.28.18.914.914,0,0,1-.14.07,1.483,1.483,0,0,1-.32.14,1.917,1.917,0,0,1-.32.09.59.59,0,0,1-.14.02,1.87,1.87,0,0,1-.34.03,1.982,1.982,0,0,1-.35-.03.2.2,0,0,1-.08-.01,2.749,2.749,0,0,1-1.44-.76,3.971,3.971,0,0,1-.4-.42,4.172,4.172,0,0,1-.36-.47c-.02-.03-.03-.05-.05-.08a3.592,3.592,0,0,1-.27-.47.251.251,0,0,1-.04-.07,3.818,3.818,0,0,1-.21-.46.914.914,0,0,1-.07-.14,10.337,10.337,0,0,1-.7-3.83c0-3.72,1.78-6.73,3.97-6.73s3.97,3.01,3.97,6.73M17.523,69.66c0,1.51-.73,2.73-1.63,2.73s-1.62-1.22-1.62-2.73.73-2.73,1.62-2.73,1.63,1.22,1.63,2.73" transform="translate(142.069 564)"/>
      <path id="Path_1201" data-name="Path 1201" class="cls-3" d="M17.523,69.66c0,1.51-.73,2.73-1.63,2.73s-1.62-1.22-1.62-2.73.73-2.73,1.62-2.73,1.63,1.22,1.63,2.73" transform="translate(142.069 564)"/>
      <path id="Path_1202" data-name="Path 1202" class="cls-3" d="M33.733,69.66c0,1.51-.73,2.73-1.63,2.73s-1.62-1.22-1.62-2.73.73-2.73,1.62-2.73,1.63,1.22,1.63,2.73" transform="translate(142.069 564)"/>
      <path id="Path_1203" data-name="Path 1203" class="cls-3" d="M27.973,81.17a10.151,10.151,0,0,1-.62,3.61,6.082,6.082,0,0,0-6.62.22,10.337,10.337,0,0,1-.7-3.83c0-3.72,1.78-6.73,3.97-6.73s3.97,3.01,3.97,6.73" transform="translate(142.069 564)"/>
      <path id="Path_1204" data-name="Path 1204" class="cls-4" d="M27.353,84.78a3.454,3.454,0,0,1-.14.34,6.488,6.488,0,0,1-.31.65c-.06.1-.11.2-.17.29-.11.18-.23.34-.35.5a4.052,4.052,0,0,1-.84.82,1.665,1.665,0,0,1-.28.18.914.914,0,0,1-.14.07,1.483,1.483,0,0,1-.32.14,1.917,1.917,0,0,1-.32.09.59.59,0,0,1-.14.02,1.87,1.87,0,0,1-.34.03,1.982,1.982,0,0,1-.35-.03.2.2,0,0,1-.08-.01,2.749,2.749,0,0,1-1.44-.76,3.971,3.971,0,0,1-.4-.42,4.172,4.172,0,0,1-.36-.47c-.02-.03-.03-.05-.05-.08a3.592,3.592,0,0,1-.27-.47.251.251,0,0,1-.04-.07,3.818,3.818,0,0,1-.21-.46.914.914,0,0,1-.07-.14,6.082,6.082,0,0,1,6.62-.22" transform="translate(142.069 564)"/>
    </g>
    <g id="Group_1635" data-name="Group 1635" transform="translate(-144.069 -566)">
      <circle id="Ellipse_524" data-name="Ellipse 524" class="cls-1" cx="22" cy="22" r="22" transform="translate(144.069 668)"/>
      <path id="Path_1206" data-name="Path 1206" class="cls-2" d="M46.013,124.87c-.01-.24-.03-.48-.05-.72-.01-.15-.02-.31-.04-.47-.04-.34-.08-.68-.13-1.01-.01-.11-.03-.23-.05-.34q-.075-.465-.18-.93t-.21-.9c-.18-.7-.4-1.39-.64-2.07s-.53-1.33-.84-1.97c-.15-.32-.31-.64-.48-.95-.14-.25-.28-.5-.42-.73,0-.03-.02-.05-.05-.08a2.009,2.009,0,0,0-.2-.34l-.01-.01c-.14-.22-.28-.44-.42-.65-.19-.29-.39-.57-.6-.85-.1-.13-.21-.27-.32-.41,0-.02-.01-.03-.04-.05a1.578,1.578,0,0,0-.24-.3.168.168,0,0,0-.07-.08c.01-.01.01-.01-.01-.02-.18-.22-.37-.44-.56-.65a1.622,1.622,0,0,0-.25-.28.154.154,0,0,0-.07-.07l-.01-.01c-.17-.18-.35-.37-.52-.54a7.266,7.266,0,0,0-.57-.55c-.2-.18-.39-.36-.59-.53-.4-.35-.81-.68-1.24-1-.28-.21-.57-.41-.86-.61-.25-.17-.5-.33-.76-.49h-.01a22,22,0,1,0,6.67,31.09.351.351,0,0,1,.05-.08c.39-.59.76-1.19,1.1-1.82a21.175,21.175,0,0,0,.92-1.92,19.422,19.422,0,0,0,.74-2.02c.11-.35.21-.69.3-1.05.18-.69.32-1.39.44-2.11.04-.33.09-.67.12-1.01s.06-.68.08-1.02c.01-.13.02-.27.02-.4.02-.31.03-.63.03-.95,0-.37-.01-.74-.03-1.1m-16.96-5.29-1.47-1.48,4.92-4.92,1.47,1.48Zm4.72,2.33c0,1.5-.73,2.73-1.63,2.73s-1.62-1.23-1.62-2.73.73-2.74,1.62-2.74,1.63,1.23,1.63,2.74m-19.66-7.25,1.47-1.48,4.92,4.92-1.47,1.48Zm3.45,7.25c0,1.5-.73,2.73-1.63,2.73s-1.62-1.23-1.62-2.73.73-2.74,1.62-2.74,1.63,1.23,1.63,2.74m-2.54,13.67a.723.723,0,0,1-1.17-.8,11.02,11.02,0,0,1,19.7-1.21,11.641,11.641,0,0,1,.69,1.42.726.726,0,0,1-1.18.79c-.29-.28-.57-.54-.86-.79-7.62-6.65-14.08-2.42-17.18.59" transform="translate(142.069 564)"/>
      <path id="Path_1211" data-name="Path 1211" class="cls-3" d="M17.563,121.91c0,1.5-.73,2.73-1.63,2.73s-1.62-1.23-1.62-2.73.73-2.74,1.62-2.74,1.63,1.23,1.63,2.74" transform="translate(142.069 564)"/>
      <path id="Path_1212" data-name="Path 1212" class="cls-3" d="M33.773,121.91c0,1.5-.73,2.73-1.63,2.73s-1.62-1.23-1.62-2.73.73-2.74,1.62-2.74,1.63,1.23,1.63,2.74" transform="translate(142.069 564)"/>
      <path id="Path_1213" data-name="Path 1213" class="cls-3" d="M33.063,135.78c-.29-.28-.57-.54-.86-.79-7.62-6.65-14.08-2.42-17.18.59a.723.723,0,0,1-1.17-.8,11.02,11.02,0,0,1,19.7-1.21,11.641,11.641,0,0,1,.69,1.42.726.726,0,0,1-1.18.79" transform="translate(142.069 564)"/>
      <path id="Path_1214" data-name="Path 1214" class="cls-3" d="M20.5,118.1l-1.47,1.48-4.92-4.92,1.47-1.48Z" transform="translate(142.069 564)"/>
      <path id="Path_1215" data-name="Path 1215" class="cls-3" d="M33.973,114.66l-4.92,4.92-1.47-1.48,4.92-4.92Z" transform="translate(142.069 564)"/>
    </g>
    <g id="Group_1632" data-name="Group 1632" transform="translate(-144.069 -566)">
      <circle id="Ellipse_527" data-name="Ellipse 527" class="cls-1" cx="22" cy="22" r="22" transform="translate(202.069 566)"/>
      <path id="Path_1216" data-name="Path 1216" class="cls-5" d="M91.9,23.364c-.049.3-.1.6-.137.88.1-.274.195-.558.274-.841-.039-.01-.088-.029-.137-.039m2.925,14.771c-.069.088-.137.166-.206.254a2.385,2.385,0,0,0,.215-.245Zm-33.66,0-.01.009A21.918,21.918,0,0,0,78,46a21.649,21.649,0,0,0,9.254-2.054,22.052,22.052,0,0,1-26.088-5.81M99.788,26.983v.01h.01c.039-.245.068-.489.088-.744-.03.245-.059.489-.1.734" transform="translate(146.069 564)"/>
      <path id="Path_1217" data-name="Path 1217" class="cls-2" d="M99.974,22.865a20.533,20.533,0,0,0-.225-2.2c-.039-.264-.079-.538-.137-.8a1.919,1.919,0,0,0-.039-.235c-.069-.342-.147-.684-.235-1.017-.1-.391-.2-.773-.323-1.154-.1-.323-.205-.636-.313-.949s-.235-.626-.362-.929-.264-.607-.4-.91-.293-.6-.44-.891a.884.884,0,0,0-.049-.1c-.147-.274-.3-.548-.46-.812s-.313-.528-.489-.792c-.1-.137-.185-.275-.274-.411a2.664,2.664,0,0,0-.284-.4c-.185-.264-.381-.529-.586-.783A23.306,23.306,0,0,0,93.4,8.29a21.152,21.152,0,0,0-3.845-3l-.02-.01A21.775,21.775,0,0,0,78,2,22,22,0,0,0,56,24a20.56,20.56,0,0,0,.2,2.924c.4-.293.851-.6,1.36-.9.44-.265.92-.538,1.447-.8a34.029,34.029,0,0,1,4.843-2.006,29.2,29.2,0,0,1,.558,8.021,13.376,13.376,0,0,1-.764,3.62c-.029.088-.068.176-.1.254a5.2,5.2,0,0,1-.567,1.086.379.379,0,0,1-.049.069,5.76,5.76,0,0,1-.733.987,5.519,5.519,0,0,1-1.037.881,22.055,22.055,0,0,0,26.088,5.811c.4-.186.793-.392,1.184-.6.44-.234.88-.489,1.3-.762.489-.314.958-.636,1.418-.979h.01q.632-.469,1.233-1c.4-.343.782-.705,1.154-1.076.244-.245.489-.5.724-.763.117-.128.234-.255.342-.382.069-.088.137-.166.206-.254a5.671,5.671,0,0,1-1.693-1.751s-2.69-3.052-1.379-12.11c.01,0,.01-.01.01-.03.039-.283.088-.577.137-.88.049.01.1.029.137.039a29.339,29.339,0,0,1,7.209,3.218c.186.118.372.245.538.362.039-.244.068-.489.1-.733A22.043,22.043,0,0,0,100,23.97c0-.371-.01-.733-.029-1.1m-14.829-3.56,4.46-2.632a.934.934,0,0,1,.939,1.614l-3.277,1.927,3.169,2.475a.926.926,0,0,1-.567,1.663.919.919,0,0,1-.577-.195L85.037,20.84a.919.919,0,0,1-.352-.792.9.9,0,0,1,.46-.743m-20.024-2.3a.947.947,0,0,1,1.281-.333l4.461,2.632a.925.925,0,0,1,.1,1.535l-4.256,3.317a.9.9,0,0,1-.577.195.926.926,0,0,1-.567-1.663l3.169-2.475-3.277-1.927a.937.937,0,0,1-.332-1.281M86.406,34.975A12.525,12.525,0,0,1,83.922,36.7c-.255.137-.509.264-.773.382-.205.087-.411.175-.626.254-.157.058-.323.117-.489.176A12.768,12.768,0,0,1,78,38.164c-.234,0-.459-.01-.684-.019H77.3c-.166-.01-.333-.02-.5-.04a4.152,4.152,0,0,1-.508-.058,8.927,8.927,0,0,1-1.243-.235,5.294,5.294,0,0,1-.567-.147c-.108-.029-.215-.058-.313-.088-.127-.049-.254-.088-.372-.127-.381-.137-.753-.284-1.115-.45-.176-.088-.352-.176-.518-.264a12.517,12.517,0,0,1-1.976-1.272c-.157-.117-.3-.244-.46-.372s-.284-.254-.431-.391a12.578,12.578,0,0,1-3.9-7.786H90.6c0,.039-.01.068-.01.107a12.677,12.677,0,0,1-4.187,7.953" transform="translate(146.069 564)"/>
      <path id="Path_1220" data-name="Path 1220" class="cls-3" d="M71.322,20.048a.926.926,0,0,1-.362.792l-4.255,3.317a.9.9,0,0,1-.577.195.926.926,0,0,1-.567-1.663l3.169-2.475-3.277-1.927a.938.938,0,0,1-.333-1.281.949.949,0,0,1,1.282-.333l4.461,2.632a.931.931,0,0,1,.459.743" transform="translate(146.069 564)"/>
      <path id="Path_1221" data-name="Path 1221" class="cls-3" d="M90.544,18.288l-3.277,1.927,3.169,2.475a.926.926,0,0,1-.567,1.663.914.914,0,0,1-.577-.2l-4.256-3.316a.924.924,0,0,1-.352-.792.912.912,0,0,1,.46-.744l4.461-2.631a.934.934,0,0,1,.939,1.614" transform="translate(146.069 564)"/>
      <path id="Path_1222" data-name="Path 1222" class="cls-6" d="M101.108,38.272a5.693,5.693,0,0,1-3.4.851c-.127-.009-.244-.019-.361-.039a4.921,4.921,0,0,1-.92-.186,5.683,5.683,0,0,1-1.594-.753l-.01-.01a5.679,5.679,0,0,1-1.692-1.751s-2.69-3.052-1.38-12.11c.01,0,.01-.01.01-.029.1-.274.2-.558.274-.841a29.315,29.315,0,0,1,7.21,3.217c.185.118.371.245.537.363v.01h.01a11.951,11.951,0,0,1,2.671,2.455c.059.078.107.146.146.2a3.755,3.755,0,0,1,.382.636,5.8,5.8,0,0,1-1.888,7.982" transform="translate(146.069 564)"/>
      <path id="Path_1223" data-name="Path 1223" class="cls-7" d="M92.041,23.4c-.078.283-.176.567-.274.841.039-.284.088-.577.137-.88.049.009.1.029.137.039" transform="translate(146.069 564)"/>
      <path id="Path_1224" data-name="Path 1224" class="cls-6" d="M64.416,31.239a13.392,13.392,0,0,1-.763,3.62c-.029.087-.069.175-.1.254a5.215,5.215,0,0,1-.568,1.085.42.42,0,0,1-.048.069,5.773,5.773,0,0,1-.734.988,5.525,5.525,0,0,1-1.037.881l-.009.009a5.791,5.791,0,0,1-6.153.2,4.964,4.964,0,0,1-.529-.353,3.552,3.552,0,0,1-.42-.341,4.758,4.758,0,0,1-.763-.842,2.714,2.714,0,0,1-.2-.274,3.325,3.325,0,0,1-.215-.352,5.358,5.358,0,0,1-.264-.538,4.022,4.022,0,0,1-.186-.479c-.02-.059-.039-.128-.059-.186-.039-.127-.069-.255-.1-.392-.01-.029-.01-.048-.019-.078a5.774,5.774,0,0,1,.675-4.089s.587-1.565,3.277-3.492c.4-.293.85-.6,1.36-.9.439-.264.919-.538,1.447-.8a33.854,33.854,0,0,1,4.842-2,29.161,29.161,0,0,1,.558,8.021" transform="translate(146.069 564)"/>
      <path id="Path_1225" data-name="Path 1225" class="cls-3" d="M90.6,26.915c0,.039-.01.068-.01.107A12.672,12.672,0,0,1,86.4,34.975l-.117-.274c-.46-.225-.929-.43-1.389-.606-7.972-3.091-15.5.548-15.6.606a12.574,12.574,0,0,1-3.9-7.786Z" transform="translate(146.069 564)"/>
      <path id="Path_1226" data-name="Path 1226" class="cls-4" d="M86.406,34.975A12.525,12.525,0,0,1,83.922,36.7c-.255.137-.509.264-.773.382-.205.087-.411.175-.626.254-.157.058-.323.117-.489.176A12.768,12.768,0,0,1,78,38.164c-.234,0-.459-.01-.684-.019H77.3c-.166-.01-.333-.02-.5-.04a4.152,4.152,0,0,1-.508-.058,8.927,8.927,0,0,1-1.243-.235,5.294,5.294,0,0,1-.567-.147c-.108-.029-.215-.058-.313-.088-.127-.049-.254-.088-.372-.127-.381-.137-.753-.284-1.115-.45-.176-.088-.352-.176-.518-.264a12.517,12.517,0,0,1-1.976-1.272c-.157-.117-.3-.244-.46-.372s-.284-.254-.431-.391c.1-.058,7.63-3.7,15.6-.606.459.176.929.381,1.389.606Z" transform="translate(146.069 564)"/>
    </g>
    <g id="Group_1636" data-name="Group 1636" transform="translate(-144.069 -566)">
      <circle id="Ellipse_525" data-name="Ellipse 525" class="cls-1" cx="22" cy="22" r="22" transform="translate(202.072 668)"/>
      <path id="Path_1232" data-name="Path 1232" class="cls-2" d="M99.973,124.87c-.01-.24-.03-.48-.05-.72-.01-.15-.02-.31-.04-.47-.04-.34-.08-.68-.13-1.01-.01-.11-.03-.23-.05-.34q-.075-.465-.18-.93c-.07-.3-.13-.6-.21-.9-.18-.7-.4-1.39-.64-2.07s-.53-1.33-.84-1.97c-.15-.32-.31-.64-.48-.95-.14-.25-.28-.5-.42-.73.01-.01.01-.01,0-.01a.209.209,0,0,0-.04-.06.072.072,0,0,0-.04-.06,1.458,1.458,0,0,0-.17-.29l-.01-.01c-.14-.22-.28-.44-.42-.65-.19-.29-.389-.57-.6-.85-.1-.13-.21-.27-.32-.41a.1.1,0,0,0-.05-.07,1.74,1.74,0,0,0-.22-.27l-.01-.01c0-.02-.02-.04-.05-.06.01-.01.01-.01-.02-.02.01-.01.01-.01-.01-.02-.18-.22-.37-.44-.56-.65l-.01-.01a1.941,1.941,0,0,0-.24-.27.154.154,0,0,0-.07-.07l-.01-.01c-.17-.18-.35-.37-.52-.54a7.266,7.266,0,0,0-.57-.55c-.2-.18-.39-.36-.59-.53-.4-.35-.81-.68-1.24-1-.28-.21-.57-.41-.86-.61-.25-.17-.5-.33-.76-.49h-.01a22,22,0,1,0,6.67,31.09.351.351,0,0,1,.05-.08c.39-.59.76-1.19,1.1-1.82a21.176,21.176,0,0,0,.92-1.92,19.422,19.422,0,0,0,.74-2.02c.11-.35.21-.69.3-1.05.18-.69.32-1.39.44-2.11.04-.33.09-.67.12-1.01.02-.14.03-.29.04-.43a5.654,5.654,0,0,0,.04-.59c.01-.13.02-.27.02-.4.02-.31.03-.63.03-.95,0-.37-.01-.74-.03-1.1m-16.31-12.8a.109.109,0,0,1,.11.02,15.722,15.722,0,0,0,1.591,1.46,10.461,10.461,0,0,0,1.679,1.09,13.076,13.076,0,0,0,1.85.79c.45.16.92.29,1.41.42.23.07.46.13.7.2a.1.1,0,0,1,.06.08.088.088,0,0,1-.05.1,4.941,4.941,0,0,1-2.35.42.277.277,0,0,0-.09-.01,5.773,5.773,0,0,1-2.25-.65,5.469,5.469,0,0,1-1.86-1.58,4.26,4.26,0,0,1-.86-2.25.1.1,0,0,1,.06-.09m4.07,8.59c0,1.51-.73,2.73-1.619,2.73s-1.631-1.22-1.631-2.73.73-2.73,1.631-2.73,1.619,1.22,1.619,2.73m-20.39-4.01a4.941,4.941,0,0,1-2.35-.42.1.1,0,0,1-.05-.1.1.1,0,0,1,.07-.08c.23-.07.46-.13.69-.2.49-.13.96-.26,1.411-.42a13.062,13.062,0,0,0,1.849-.79,10.47,10.47,0,0,0,1.68-1.09,15.819,15.819,0,0,0,1.59-1.46.109.109,0,0,1,.11-.02.1.1,0,0,1,.06.09,4.252,4.252,0,0,1-.86,2.25,5.469,5.469,0,0,1-1.86,1.58,5.773,5.773,0,0,1-2.25.65.277.277,0,0,0-.09.01m2.56,6.74c-.9,0-1.63-1.22-1.63-2.73s.73-2.73,1.63-2.73,1.62,1.22,1.62,2.73-.73,2.73-1.62,2.73m23.94,13.15a5.8,5.8,0,0,1-5.8,5.79,5.682,5.682,0,0,1-.59-.03,5.4,5.4,0,0,1-.58-.09,2.369,2.369,0,0,1-.36-.09,1.709,1.709,0,0,1-.3-.09,3.827,3.827,0,0,1-.56-.22,5.742,5.742,0,0,1-1.49-.98,2.874,2.874,0,0,1-.39-.39l-.03-.03a5.706,5.706,0,0,1-1.33-2.54,5.324,5.324,0,0,1-.16-1.33,8.1,8.1,0,0,1,.74-3.85,7.7,7.7,0,0,0-1.77-1.29,6.8,6.8,0,0,0-3.2-.76,7.569,7.569,0,0,0-3.24.78,7.936,7.936,0,0,0-1.46.98A9.368,9.368,0,0,0,72,133.83a.424.424,0,0,1-.76-.26,5.261,5.261,0,0,1,.6-2.31,6.421,6.421,0,0,1,1.54-1.91A7.381,7.381,0,0,1,78,127.67a6.946,6.946,0,0,1,4.64,1.67,6.511,6.511,0,0,1,1.23,1.4,30.829,30.829,0,0,1,4.17-5.93,35.146,35.146,0,0,1,2.821,3.66,22.924,22.924,0,0,1,1.719,2.98v.01c1.56,3.28,1.26,5.08,1.26,5.08" transform="translate(146.069 564)"/>
      <path id="Path_1233" data-name="Path 1233" class="cls-3" d="M71.523,120.66c0,1.51-.73,2.73-1.62,2.73s-1.63-1.22-1.63-2.73.73-2.73,1.63-2.73,1.62,1.22,1.62,2.73" transform="translate(146.069 564)"/>
      <path id="Path_1234" data-name="Path 1234" class="cls-3" d="M87.733,120.66c0,1.51-.73,2.73-1.62,2.73s-1.63-1.22-1.63-2.73.73-2.73,1.63-2.73,1.62,1.22,1.62,2.73" transform="translate(146.069 564)"/>
      <path id="Path_1235" data-name="Path 1235" class="cls-3" d="M91.063,116.13a.088.088,0,0,1-.05.1,4.941,4.941,0,0,1-2.35.42.277.277,0,0,0-.09-.01,5.773,5.773,0,0,1-2.25-.65,5.469,5.469,0,0,1-1.86-1.58,4.26,4.26,0,0,1-.86-2.25.1.1,0,0,1,.06-.09.109.109,0,0,1,.11.02,15.818,15.818,0,0,0,1.59,1.46,10.514,10.514,0,0,0,1.68,1.09,13.026,13.026,0,0,0,1.85.79c.45.16.92.29,1.41.42.23.07.46.13.7.2a.1.1,0,0,1,.06.08" transform="translate(146.069 564)"/>
      <path id="Path_1236" data-name="Path 1236" class="cls-3" d="M72.4,112.16a4.26,4.26,0,0,1-.86,2.25,5.469,5.469,0,0,1-1.86,1.58,5.773,5.773,0,0,1-2.25.65.277.277,0,0,0-.09.01,4.941,4.941,0,0,1-2.35-.42.1.1,0,0,1-.05-.1.1.1,0,0,1,.07-.08c.23-.07.46-.13.69-.2.49-.13.96-.26,1.41-.42a13.026,13.026,0,0,0,1.85-.79,10.514,10.514,0,0,0,1.68-1.09,15.819,15.819,0,0,0,1.59-1.46.109.109,0,0,1,.11-.02.1.1,0,0,1,.06.09" transform="translate(146.069 564)"/>
      <path id="Path_1237" data-name="Path 1237" class="cls-3" d="M83.873,130.74a14.411,14.411,0,0,0-.88,1.95,7.7,7.7,0,0,0-1.77-1.29,6.8,6.8,0,0,0-3.2-.76,7.569,7.569,0,0,0-3.24.78,7.936,7.936,0,0,0-1.46.98A9.368,9.368,0,0,0,72,133.83a.424.424,0,0,1-.76-.26,5.261,5.261,0,0,1,.6-2.31,6.421,6.421,0,0,1,1.54-1.91A7.381,7.381,0,0,1,78,127.67a6.946,6.946,0,0,1,4.64,1.67,6.511,6.511,0,0,1,1.23,1.4" transform="translate(146.069 564)"/>
      <path id="Path_1238" data-name="Path 1238" class="cls-6" d="M93.843,136.54a5.8,5.8,0,0,1-5.8,5.79,5.682,5.682,0,0,1-.59-.03,5.4,5.4,0,0,1-.58-.09,2.369,2.369,0,0,1-.36-.09,1.709,1.709,0,0,1-.3-.09,3.827,3.827,0,0,1-.56-.22,5.742,5.742,0,0,1-1.49-.98,3.59,3.59,0,0,1-.39-.39l-.03-.03a5.706,5.706,0,0,1-1.33-2.54,5.324,5.324,0,0,1-.16-1.33,8.1,8.1,0,0,1,.74-3.85,14.411,14.411,0,0,1,.88-1.95,30.829,30.829,0,0,1,4.17-5.93,35.146,35.146,0,0,1,2.821,3.66,22.924,22.924,0,0,1,1.719,2.98v.01c1.56,3.28,1.26,5.08,1.26,5.08" transform="translate(146.069 564)"/>
    </g>
    <g id="Group_1631" data-name="Group 1631" transform="translate(-144.069 -566)">
      <circle id="Ellipse_528" data-name="Ellipse 528" class="cls-1" cx="22" cy="22" r="22" transform="translate(144.069 566)"/>
      <path id="Path_1240" data-name="Path 1240" class="cls-2" d="M45.973,22.87c-.02-.35-.04-.7-.07-1.04-.01-.04-.01-.09-.02-.15-.04-.34-.08-.68-.13-1.01v-.03c-.12-.73-.26-1.44-.44-2.14s-.4-1.39-.64-2.07-.53-1.33-.84-1.97c-.15-.32-.31-.64-.48-.95q-.225-.42-.48-.84a.871.871,0,0,0-.11-.18c-.17-.27-.34-.53-.51-.79a17.9,17.9,0,0,0-1.24-1.66c0-.02-.01-.03-.04-.05-.18-.22-.37-.44-.56-.65a1.622,1.622,0,0,0-.25-.28c-.2-.21-.4-.42-.6-.62A22.091,22.091,0,0,0,36.3,5.75c-.25-.17-.51-.33-.77-.49A22,22,0,1,0,24,46a21.6,21.6,0,0,0,9.59-2.22c.29-.14.58-.29.86-.44s.55-.31.82-.47c.55-.33,1.09-.69,1.62-1.06s1.02-.77,1.5-1.19c.45-.39.88-.79,1.29-1.22.23-.24.46-.48.68-.72a21.757,21.757,0,0,0,1.84-2.34c.36-.52.69-1.06,1.01-1.62v-.01c.31-.56.6-1.13.87-1.72a21.731,21.731,0,0,0,1.28-3.69q.24-.96.39-1.95A23.483,23.483,0,0,0,46,23.97c0-.37-.01-.74-.03-1.1M7.823,30.9a3.84,3.84,0,0,1,0-7.68,3.84,3.84,0,0,1,0,7.68m2.95-11.71a.661.661,0,0,1,.25-.79.609.609,0,0,1,.36-.11.667.667,0,0,1,.46.18c2.26,2.2,4.19,1.25,5.41.07a.652.652,0,0,1,.83-.07.633.633,0,0,1,.23.79,4.077,4.077,0,0,1-7.54-.07m23.42,8.07a11.025,11.025,0,0,1-20.39-.2.724.724,0,0,1,1.18-.79c7.98,7.75,14.82,3.31,18.04.19a.724.724,0,0,1,1.17.8m-.73-5.51a4.052,4.052,0,0,1-3.78-2.56.645.645,0,0,1,.24-.79.609.609,0,0,1,.36-.11.667.667,0,0,1,.46.18c2.26,2.2,4.19,1.25,5.41.07a.652.652,0,0,1,.83-.07.633.633,0,0,1,.23.79,4.069,4.069,0,0,1-3.75,2.49m6.71,9.15a3.846,3.846,0,0,1-3.82-3.42c-.01-.14-.02-.28-.02-.42a3.84,3.84,0,1,1,3.84,3.84" transform="translate(142.069 564)"/>
      <path id="Path_1246" data-name="Path 1246" class="cls-3" d="M34.193,27.26a11.025,11.025,0,0,1-20.39-.2.724.724,0,0,1,1.18-.79c7.98,7.75,14.82,3.31,18.04.19a.724.724,0,0,1,1.17.8" transform="translate(142.069 564)"/>
      <path id="Path_1247" data-name="Path 1247" class="cls-3" d="M37.213,19.26a4.07,4.07,0,0,1-7.53-.07.645.645,0,0,1,.24-.79.609.609,0,0,1,.36-.11.667.667,0,0,1,.46.18c2.26,2.2,4.19,1.25,5.41.07a.652.652,0,0,1,.83-.07.633.633,0,0,1,.23.79" transform="translate(142.069 564)"/>
      <path id="Path_1248" data-name="Path 1248" class="cls-3" d="M18.313,19.26a4.077,4.077,0,0,1-7.54-.07.661.661,0,0,1,.25-.79.609.609,0,0,1,.36-.11.667.667,0,0,1,.46.18c2.26,2.2,4.19,1.25,5.41.07a.652.652,0,0,1,.83-.07.633.633,0,0,1,.23.79" transform="translate(142.069 564)"/>
      <path id="Path_1249" data-name="Path 1249" class="cls-4" d="M11.663,27.06a3.841,3.841,0,0,1-3.84,3.84,3.84,3.84,0,0,1,0-7.68,3.841,3.841,0,0,1,3.84,3.84" transform="translate(142.069 564)"/>
      <path id="Path_1250" data-name="Path 1250" class="cls-4" d="M44.014,27.06a3.842,3.842,0,0,1-7.66.42c-.01-.14-.02-.28-.02-.42a3.84,3.84,0,1,1,7.68,0" transform="translate(142.069 564)"/>
    </g>
    <g id="Group_1634" data-name="Group 1634" transform="translate(-144.069 -566)">
      <circle id="Ellipse_529" data-name="Ellipse 529" class="cls-1" cx="22" cy="22" r="22" transform="translate(202.072 617)"/>
      <path id="Path_1257" data-name="Path 1257" class="cls-2" d="M99.973,73.87c-.02-.35-.04-.7-.07-1.04-.01-.04-.01-.09-.02-.151-.04-.339-.08-.679-.13-1.009v-.03c-.12-.73-.26-1.44-.44-2.14s-.4-1.39-.64-2.071-.53-1.329-.84-1.969c-.15-.32-.31-.64-.48-.95q-.225-.42-.48-.84a.871.871,0,0,0-.11-.18c-.17-.27-.34-.53-.51-.79a17.9,17.9,0,0,0-1.24-1.66c0-.02-.01-.03-.04-.05-.18-.22-.37-.44-.56-.65a1.622,1.622,0,0,0-.25-.28c-.2-.21-.4-.42-.6-.62a22.091,22.091,0,0,0-3.26-2.69c-.25-.17-.51-.33-.77-.49A22,22,0,1,0,78,96.99a21.026,21.026,0,0,0,5.76-.78c.31-.08.61-.17.91-.27.6-.19,1.18-.41,1.76-.64,0-.01,0-.01.01-.01.57-.24,1.14-.5,1.69-.79s1.09-.59,1.61-.92,1.03-.69,1.53-1.06c.18-.14.36-.28.54-.43.12-.1.25-.2.37-.31.1-.08.2-.16.3-.25.3-.26.59-.53.88-.81.17-.17.34-.34.49-.5s.32-.34.47-.51q.465-.51.9-1.05a17.931,17.931,0,0,0,1.09-1.5c.18-.25.34-.52.5-.78.32-.53.62-1.08.9-1.63.14-.28.27-.56.4-.85.25-.57.48-1.15.69-1.75a21.031,21.031,0,0,0,.75-2.75,21.545,21.545,0,0,0,.45-4.43c0-.37-.01-.74-.03-1.1m-34.92-9.191a3.029,3.029,0,0,1,2.08.781,3.646,3.646,0,0,1,1.04,1.66,3.234,3.234,0,0,1,3.12-2.441,3.749,3.749,0,0,1,3.68,3.891v.03c.01.44,0,4.94-6.8,8.6-6.8-3.66-6.81-8.16-6.8-8.6v-.03a4.322,4.322,0,0,1,.14-1.08,3.91,3.91,0,0,1,1.26-2,3.484,3.484,0,0,1,2.28-.811M84.243,85.47v.01a7.759,7.759,0,0,1-.71.56,5.453,5.453,0,0,1-.58.4,8.519,8.519,0,0,1-.84.46c-.24.11-.48.22-.72.31a8.844,8.844,0,0,1-1.62.46,2.931,2.931,0,0,1-.29.05,9.048,9.048,0,0,1-1.48.12,9.447,9.447,0,0,1-3.16-.54c-.12-.05-.25-.1-.37-.15a7.276,7.276,0,0,1-.8-.37,8.3,8.3,0,0,1-.76-.44c-.19-.12-.37-.25-.55-.38-.12-.09-.23-.17-.33-.26-.17-.14-.33-.28-.49-.43a9.31,9.31,0,0,1-2.89-5.77h18.7a9.355,9.355,0,0,1-3.11,5.97m7.93-11.52a16.333,16.333,0,0,1-4.34,3.25c-6.8-3.66-6.81-8.16-6.8-8.6v-.03a3.749,3.749,0,0,1,3.68-3.891,3.074,3.074,0,0,1,2.09.781,3.709,3.709,0,0,1,1.03,1.66,3.243,3.243,0,0,1,3.12-2.441,3.572,3.572,0,0,1,1.83.491,3.931,3.931,0,0,1,1.85,3.4v.03a7.991,7.991,0,0,1-2.46,5.35" transform="translate(146.069 564)"/>
      <path id="Path_1263" data-name="Path 1263" class="cls-3" d="M87.353,79.5a9.355,9.355,0,0,1-3.11,5.97l-.09-.2c-6.28-3.06-12.52-.04-12.61,0a9.31,9.31,0,0,1-2.89-5.77Z" transform="translate(146.069 564)"/>
      <path id="Path_1264" data-name="Path 1264" class="cls-4" d="M84.244,85.47v.01a7.591,7.591,0,0,1-.71.56,5.453,5.453,0,0,1-.58.4,8.519,8.519,0,0,1-.84.46c-.24.11-.48.22-.72.31a8.844,8.844,0,0,1-1.62.46,2.93,2.93,0,0,1-.29.05,9.048,9.048,0,0,1-1.48.12,9.447,9.447,0,0,1-3.16-.54c-.12-.05-.25-.1-.37-.15a7.276,7.276,0,0,1-.8-.37,8.3,8.3,0,0,1-.76-.44c-.19-.12-.37-.25-.55-.38-.12-.09-.23-.17-.33-.26-.17-.14-.33-.28-.49-.43.09-.04,6.33-3.06,12.61,0Z" transform="translate(146.069 564)"/>
      <path id="Path_1265" data-name="Path 1265" class="cls-4" d="M74.974,68.57v.03c.01.44,0,4.94-6.8,8.6-6.8-3.66-6.81-8.16-6.8-8.6v-.03a4.322,4.322,0,0,1,.14-1.08,3.91,3.91,0,0,1,1.26-2,3.483,3.483,0,0,1,2.28-.81,3.029,3.029,0,0,1,2.08.78,3.646,3.646,0,0,1,1.04,1.66,3.233,3.233,0,0,1,3.12-2.44,3.748,3.748,0,0,1,3.68,3.89" transform="translate(146.069 564)"/>
      <path id="Path_1266" data-name="Path 1266" class="cls-4" d="M92.173,73.95a16.333,16.333,0,0,1-4.34,3.25c-6.8-3.66-6.81-8.16-6.8-8.6v-.03a3.749,3.749,0,0,1,3.68-3.891,3.074,3.074,0,0,1,2.09.781,3.709,3.709,0,0,1,1.03,1.66,3.243,3.243,0,0,1,3.12-2.441,3.572,3.572,0,0,1,1.83.491,3.931,3.931,0,0,1,1.85,3.4v.03a7.991,7.991,0,0,1-2.46,5.35" transform="translate(146.069 564)"/>
    </g>
  </g>
</svg>
